<?xml version="1.0" standalone="no"?>
<!DOCTYPE svg PUBLIC "-//W3C//DTD SVG 20010904//EN"
 "http://www.w3.org/TR/2001/REC-SVG-20010904/DTD/svg10.dtd">
<svg version="1.0" xmlns="http://www.w3.org/2000/svg"
 width="1024.000000pt" height="1024.000000pt" viewBox="0 0 1024.000000 1024.000000"
 preserveAspectRatio="xMidYMid meet">

<g transform="translate(0.000000,1024.000000) scale(0.100000,-0.100000)"
fill="#000000" stroke="none">
<path d="M3690 6639 c-534 -80 -971 -384 -1186 -824 -61 -125 -95 -224 -126
-369 -30 -137 -33 -491 -5 -631 44 -223 138 -441 261 -605 36 -48 109 -129
163 -180 251 -241 551 -382 929 -436 142 -20 429 -23 554 -5 656 95 1163 517
1310 1091 45 175 49 247 52 823 l3 549 410 -5 c379 -4 416 -5 487 -25 324 -89
537 -303 624 -627 24 -89 27 -119 28 -270 1 -148 -2 -182 -23 -259 -47 -180
-119 -311 -233 -424 -113 -113 -236 -181 -416 -229 -97 -27 -98 -27 -487 -27
l-390 -1 3 113 c2 61 0 112 -3 112 -3 0 -16 -21 -27 -48 -95 -214 -324 -471
-559 -628 -92 -61 -97 -67 -101 -104 -3 -37 -2 -39 30 -45 41 -8 1028 -4 1327
6 329 10 508 51 760 174 526 258 818 740 817 1350 -1 238 -36 427 -116 626
-130 321 -359 564 -681 719 -173 84 -320 127 -545 161 -51 8 -316 11 -835 10
l-760 -1 -1 -833 c-1 -917 -2 -924 -65 -1087 -138 -358 -541 -575 -984 -530
-142 14 -242 42 -360 100 -237 117 -402 324 -471 595 -44 170 -37 385 18 555
97 301 326 517 638 601 75 21 108 23 280 24 212 0 255 -7 413 -67 93 -35 229
-123 315 -203 34 -32 64 -56 66 -54 2 2 5 175 7 384 l4 380 -105 42 c-222 89
-425 124 -713 122 -124 0 -222 -7 -307 -20z"/>
</g>
</svg>
